<svg width="17" height="16" viewBox="0 0 17 16" fill="none" xmlns="http://www.w3.org/2000/svg">
<path d="M3 3.99999H2C1.86739 3.99999 1.74021 3.94731 1.64645 3.85355C1.55268 3.75978 1.5 3.6326 1.5 3.49999C1.5 3.36738 1.55268 3.24021 1.64645 3.14644C1.74021 3.05267 1.86739 2.99999 2 2.99999H6V1.49899C6 1.36638 6.05268 1.23921 6.14645 1.14544C6.24021 1.05167 6.36739 0.998993 6.5 0.998993H10.5C10.6326 0.998993 10.7598 1.05167 10.8536 1.14544C10.9473 1.23921 11 1.36638 11 1.49899V2.99999H15C15.1326 2.99999 15.2598 3.05267 15.3536 3.14644C15.4473 3.24021 15.5 3.36738 15.5 3.49999C15.5 3.6326 15.4473 3.75978 15.3536 3.85355C15.2598 3.94731 15.1326 3.99999 15 3.99999H14V14.5C14 14.6326 13.9473 14.7598 13.8536 14.8535C13.7598 14.9473 13.6326 15 13.5 15H3.5C3.36739 15 3.24021 14.9473 3.14645 14.8535C3.05268 14.7598 3 14.6326 3 14.5V3.99999ZM10 2.99999V1.99999H7V2.99999H10ZM4 14H13V3.99999H4V14ZM7 12C6.86739 12 6.74021 11.9473 6.64645 11.8535C6.55268 11.7598 6.5 11.6326 6.5 11.5V6.49999C6.5 6.36739 6.55268 6.24021 6.64645 6.14644C6.74021 6.05267 6.86739 5.99999 7 5.99999C7.13261 5.99999 7.25979 6.05267 7.35355 6.14644C7.44732 6.24021 7.5 6.36739 7.5 6.49999V11.5C7.5 11.6326 7.44732 11.7598 7.35355 11.8535C7.25979 11.9473 7.13261 12 7 12ZM10 12C9.86739 12 9.74021 11.9473 9.64645 11.8535C9.55268 11.7598 9.5 11.6326 9.5 11.5V6.49999C9.5 6.36739 9.55268 6.24021 9.64645 6.14644C9.74021 6.05267 9.86739 5.99999 10 5.99999C10.1326 5.99999 10.2598 6.05267 10.3536 6.14644C10.4473 6.24021 10.5 6.36739 10.5 6.49999V11.5C10.5 11.6326 10.4473 11.7598 10.3536 11.8535C10.2598 11.9473 10.1326 12 10 12Z" fill="#404040"/>
</svg>
