<svg width="14" height="14" viewBox="0 0 14 14" fill="none" xmlns="http://www.w3.org/2000/svg">
<path d="M13.3437 7.43751V10.9375C13.3437 11.1116 13.2746 11.2785 13.1515 11.4016C13.0284 11.5246 12.8615 11.5938 12.6875 11.5938H9.18748C9.01343 11.5938 8.84651 11.5246 8.72344 11.4016C8.60037 11.2785 8.53123 11.1116 8.53123 10.9375C8.53123 10.7635 8.60037 10.5965 8.72344 10.4735C8.84651 10.3504 9.01343 10.2813 9.18748 10.2813H11.1015L7.43748 6.6172L5.71427 8.34095C5.6533 8.40213 5.58086 8.45068 5.50109 8.4838C5.42132 8.51692 5.3358 8.53397 5.24943 8.53397C5.16306 8.53397 5.07754 8.51692 4.99777 8.4838C4.918 8.45068 4.84555 8.40213 4.78458 8.34095L0.847086 4.40345C0.723801 4.28017 0.654541 4.11296 0.654541 3.93861C0.654541 3.85228 0.671545 3.76679 0.704582 3.68704C0.737619 3.60728 0.786041 3.53481 0.847086 3.47376C0.90813 3.41272 0.9806 3.3643 1.06036 3.33126C1.14012 3.29822 1.2256 3.28122 1.31193 3.28122C1.48628 3.28122 1.65349 3.35048 1.77677 3.47376L5.24998 6.94533L6.97318 5.22158C7.03415 5.1604 7.10659 5.11185 7.18636 5.07873C7.26613 5.04561 7.35165 5.02856 7.43802 5.02856C7.52439 5.02856 7.60992 5.04561 7.68968 5.07873C7.76945 5.11185 7.8419 5.1604 7.90287 5.22158L12.0312 9.35158V7.43751C12.0312 7.26347 12.1004 7.09655 12.2234 6.97348C12.3465 6.8504 12.5134 6.78126 12.6875 6.78126C12.8615 6.78126 13.0284 6.8504 13.1515 6.97348C13.2746 7.09655 13.3437 7.26347 13.3437 7.43751Z" fill="#9A7265"/>
</svg>
