<svg width="17" height="16" viewBox="0 0 17 16" fill="none" xmlns="http://www.w3.org/2000/svg">
<path d="M5.16675 11.342L8.10875 11.332L14.5301 4.972C14.7821 4.72 14.9207 4.38533 14.9207 4.02933C14.9207 3.67333 14.7821 3.33867 14.5301 3.08667L13.4727 2.02933C12.9687 1.52533 12.0894 1.528 11.5894 2.02733L5.16675 8.38867V11.342ZM12.5301 2.972L13.5894 4.02733L12.5247 5.082L11.4674 4.02533L12.5301 2.972ZM6.50008 8.94467L10.5201 4.96267L11.5774 6.02L7.55808 10.0007L6.50008 10.004V8.94467Z" fill="#404040"/>
<path d="M3.83333 14H13.1667C13.902 14 14.5 13.402 14.5 12.6667V6.888L13.1667 8.22133V12.6667H5.93867C5.92133 12.6667 5.90333 12.6733 5.886 12.6733C5.864 12.6733 5.842 12.6673 5.81933 12.6667H3.83333V3.33333H8.398L9.73133 2H3.83333C3.098 2 2.5 2.598 2.5 3.33333V12.6667C2.5 13.402 3.098 14 3.83333 14Z" fill="#404040"/>
</svg>
