<svg width="24" height="24" viewBox="0 0 24 24" fill="none" xmlns="http://www.w3.org/2000/svg">
<path d="M12 21.3C17.3018 21.3 21.6 17.7334 21.6 15.3C21.6 12.8666 17.3018 9.29999 12 9.29999C6.69811 9.29999 2.39998 12.8691 2.39998 15.3C2.39998 17.7308 6.69811 21.3 12 21.3Z" stroke="#E7DDDA" stroke-width="2" stroke-linejoin="round"/>
<path d="M11.8 18.5C12.5956 18.5 13.3587 18.1839 13.9213 17.6213C14.4839 17.0587 14.8 16.2956 14.8 15.5C14.8 14.7044 14.4839 13.9413 13.9213 13.3787C13.3587 12.8161 12.5956 12.5 11.8 12.5C11.0043 12.5 10.2413 12.8161 9.67865 13.3787C9.11604 13.9413 8.79997 14.7044 8.79997 15.5C8.79997 16.2956 9.11604 17.0587 9.67865 17.6213C10.2413 18.1839 11.0043 18.5 11.8 18.5Z" stroke="#E7DDDA" stroke-width="2" stroke-linejoin="round"/>
<path d="M6.63203 7.26789L8.0241 9.70151M18.632 7.56638L17.2394 9.99999M12.3983 4.39999V8.43361" stroke="#E7DDDA" stroke-width="3" stroke-linecap="round"/>
</svg>
