<svg width="20" height="20" viewBox="0 0 20 20" fill="none" xmlns="http://www.w3.org/2000/svg">
<g clip-path="url(#clip0_29_301)">
<path d="M0.833333 3.9586H3.11333C3.2922 4.61671 3.68264 5.19768 4.22444 5.61188C4.76623 6.02608 5.42927 6.25049 6.11125 6.25049C6.79323 6.25049 7.45627 6.02608 7.99806 5.61188C8.53986 5.19768 8.9303 4.61671 9.10917 3.9586H19.1667C19.3877 3.9586 19.5996 3.87081 19.7559 3.71453C19.9122 3.55825 20 3.34628 20 3.12527C20 2.90426 19.9122 2.6923 19.7559 2.53602C19.5996 2.37974 19.3877 2.29194 19.1667 2.29194H9.10917C8.9303 1.63383 8.53986 1.05286 7.99806 0.638662C7.45627 0.224465 6.79323 5.53131e-05 6.11125 5.53131e-05C5.42927 5.53131e-05 4.76623 0.224465 4.22444 0.638662C3.68264 1.05286 3.2922 1.63383 3.11333 2.29194H0.833333C0.61232 2.29194 0.400358 2.37974 0.244078 2.53602C0.0877974 2.6923 0 2.90426 0 3.12527C0 3.34628 0.0877974 3.55825 0.244078 3.71453C0.400358 3.87081 0.61232 3.9586 0.833333 3.9586V3.9586ZM6.11083 1.66694C6.39926 1.66694 6.68122 1.75247 6.92104 1.91271C7.16086 2.07295 7.34778 2.30072 7.45816 2.56719C7.56854 2.83367 7.59742 3.12689 7.54115 3.40978C7.48488 3.69267 7.34598 3.95252 7.14203 4.15647C6.93808 4.36042 6.67823 4.49931 6.39534 4.55558C6.11245 4.61185 5.81923 4.58297 5.55275 4.4726C5.28628 4.36222 5.05852 4.1753 4.89827 3.93548C4.73803 3.69566 4.6525 3.4137 4.6525 3.12527C4.65294 2.73863 4.80673 2.36796 5.08012 2.09456C5.35352 1.82117 5.72419 1.66738 6.11083 1.66694V1.66694Z" fill="#4C7380"/>
<path d="M19.1667 9.16592H16.8867C16.7081 8.50766 16.3178 7.92648 15.7761 7.51212C15.2343 7.09775 14.5712 6.87323 13.8892 6.87323C13.2071 6.87323 12.544 7.09775 12.0023 7.51212C11.4605 7.92648 11.0702 8.50766 10.8917 9.16592H0.833333C0.61232 9.16592 0.400358 9.25372 0.244078 9.41C0.0877974 9.56628 0 9.77824 0 9.99925C0 10.2203 0.0877974 10.4322 0.244078 10.5885C0.400358 10.7448 0.61232 10.8326 0.833333 10.8326H10.8917C11.0702 11.4908 11.4605 12.072 12.0023 12.4864C12.544 12.9008 13.2071 13.1253 13.8892 13.1253C14.5712 13.1253 15.2343 12.9008 15.7761 12.4864C16.3178 12.072 16.7081 11.4908 16.8867 10.8326H19.1667C19.3877 10.8326 19.5996 10.7448 19.7559 10.5885C19.9122 10.4322 20 10.2203 20 9.99925C20 9.77824 19.9122 9.56628 19.7559 9.41C19.5996 9.25372 19.3877 9.16592 19.1667 9.16592ZM13.8892 11.4576C13.6007 11.4576 13.3188 11.3721 13.079 11.2118C12.8391 11.0516 12.6522 10.8238 12.5418 10.5573C12.4315 10.2909 12.4026 9.99764 12.4589 9.71475C12.5151 9.43186 12.654 9.17201 12.858 8.96806C13.0619 8.76411 13.3218 8.62522 13.6047 8.56895C13.8875 8.51268 14.1808 8.54156 14.4472 8.65193C14.7137 8.76231 14.9415 8.94923 15.1017 9.18905C15.262 9.42887 15.3475 9.71082 15.3475 9.99925C15.3471 10.3859 15.1933 10.7566 14.9199 11.03C14.6465 11.3034 14.2758 11.4571 13.8892 11.4576V11.4576Z" fill="#4C7380"/>
<path d="M19.1667 16.0419H9.10917C8.9303 15.3838 8.53986 14.8029 7.99806 14.3887C7.45627 13.9745 6.79323 13.75 6.11125 13.75C5.42927 13.75 4.76623 13.9745 4.22444 14.3887C3.68264 14.8029 3.2922 15.3838 3.11333 16.0419H0.833333C0.61232 16.0419 0.400358 16.1297 0.244078 16.286C0.0877974 16.4423 0 16.6542 0 16.8753C0 17.0963 0.0877974 17.3082 0.244078 17.4645C0.400358 17.6208 0.61232 17.7086 0.833333 17.7086H3.11333C3.2922 18.3667 3.68264 18.9477 4.22444 19.3619C4.76623 19.776 5.42927 20.0005 6.11125 20.0005C6.79323 20.0005 7.45627 19.776 7.99806 19.3619C8.53986 18.9477 8.9303 18.3667 9.10917 17.7086H19.1667C19.3877 17.7086 19.5996 17.6208 19.7559 17.4645C19.9122 17.3082 20 17.0963 20 16.8753C20 16.6542 19.9122 16.4423 19.7559 16.286C19.5996 16.1297 19.3877 16.0419 19.1667 16.0419ZM6.11083 18.3336C5.8224 18.3336 5.54045 18.2481 5.30063 18.0878C5.0608 17.9276 4.87389 17.6998 4.76351 17.4333C4.65313 17.1669 4.62425 16.8736 4.68052 16.5907C4.73679 16.3079 4.87568 16.048 5.07964 15.8441C5.28359 15.6401 5.54344 15.5012 5.82633 15.4449C6.10922 15.3887 6.40244 15.4176 6.66891 15.5279C6.93539 15.6383 7.16315 15.8252 7.32339 16.0651C7.48364 16.3049 7.56917 16.5868 7.56917 16.8753C7.56851 17.2618 7.41465 17.6324 7.1413 17.9057C6.86795 18.1791 6.4974 18.3329 6.11083 18.3336V18.3336Z" fill="#4C7380"/>
</g>
<defs>
<clipPath id="clip0_29_301">
<rect width="20" height="20" fill="white"/>
</clipPath>
</defs>
</svg>
