<svg width="25" height="24" viewBox="0 0 25 24" fill="none" xmlns="http://www.w3.org/2000/svg">
<path d="M17.9403 10.4948L12.9686 2.57775C12.8965 2.47651 12.8012 2.39398 12.6907 2.33703C12.5802 2.28008 12.4577 2.25037 12.3333 2.25037C12.209 2.25037 12.0865 2.28008 11.976 2.33703C11.8655 2.39398 11.7702 2.47651 11.6981 2.57775L6.70384 10.5323C6.01001 11.6515 5.62352 12.9338 5.58334 14.25C5.58334 16.0402 6.2945 17.7571 7.56037 19.023C8.82624 20.2888 10.5431 21 12.3333 21C14.1236 21 15.8404 20.2888 17.1063 19.023C18.3722 17.7571 19.0833 16.0402 19.0833 14.25C19.0402 12.9194 18.6459 11.6238 17.9403 10.4948ZM12.3333 19.5C10.9415 19.4982 9.60718 18.9445 8.62301 17.9603C7.63883 16.9762 7.08513 15.6418 7.08334 14.25C7.12321 13.2012 7.43825 12.1813 7.99684 11.2928L8.69809 10.1753L16.2536 17.7308C15.7629 18.2867 15.1596 18.732 14.4837 19.0372C13.8079 19.3423 13.0749 19.4996 12.3333 19.5Z" fill="#6CABCE"/>
</svg>
