<svg width="21" height="20" viewBox="0 0 21 20" fill="none" xmlns="http://www.w3.org/2000/svg">
<path d="M8 16.6666C8.21667 16.45 8.525 16.3833 8.81667 16.4583C10.0178 16.7672 11.2809 16.7384 12.4667 16.375C14.8917 15.6416 16.7167 13.5083 17.0917 11.0083C17.7667 6.40831 13.7083 2.51664 9.075 3.48331C6.46667 4.02498 4.4 6.17498 3.94167 8.79164C3.77134 9.74945 3.80828 10.7326 4.05 11.675C4.125 11.9666 4.05 12.2833 3.84167 12.4916C3.375 12.9583 2.6 12.725 2.43334 12.1C2.11667 10.875 2.06667 9.54998 2.35834 8.18331C3.075 4.86664 5.84167 2.27498 9.19167 1.76664C14.8667 0.899977 19.675 5.78331 18.7083 11.4666C18.1333 14.8083 15.4917 17.5166 12.1667 18.1666C10.8417 18.425 9.56667 18.3666 8.39167 18.0666C7.76667 17.9 7.54167 17.125 8 16.6666ZM10.5 15C7.74167 15 5.5 12.7583 5.5 9.99998C5.5 7.24164 7.74167 4.99998 10.5 4.99998C13.2583 4.99998 15.5 7.24164 15.5 9.99998C15.5 12.7583 13.2583 15 10.5 15ZM5.08334 14.1666C5.775 14.1666 6.33334 14.725 6.33334 15.4166C6.33334 16.1083 5.775 16.6666 5.08334 16.6666C4.39167 16.6666 3.83334 16.1083 3.83334 15.4166C3.83334 14.725 4.39167 14.1666 5.08334 14.1666Z" fill="#9A7265"/>
</svg>
