<svg width="41" height="41" viewBox="0 0 41 41" fill="none" xmlns="http://www.w3.org/2000/svg">
<g clip-path="url(#clip0_1_1868)">
<path fill-rule="evenodd" clip-rule="evenodd" d="M20.5 32.1667C20.942 32.1667 21.3659 32.3423 21.6785 32.6548C21.9911 32.9674 22.1667 33.3913 22.1667 33.8333V35.5C22.1667 35.942 21.9911 36.3659 21.6785 36.6785C21.3659 36.9911 20.942 37.1667 20.5 37.1667C20.058 37.1667 19.634 36.9911 19.3215 36.6785C19.0089 36.3659 18.8333 35.942 18.8333 35.5V33.8333C18.8333 33.3913 19.0089 32.9674 19.3215 32.6548C19.634 32.3423 20.058 32.1667 20.5 32.1667ZM28.75 28.75C29.037 28.463 29.4188 28.2906 29.8239 28.2652C30.2289 28.2397 30.6293 28.3629 30.95 28.6117L31.1067 28.75L32.285 29.9283C32.5839 30.2283 32.7574 30.6307 32.7704 31.054C32.7833 31.4772 32.6346 31.8895 32.3546 32.2071C32.0745 32.5247 31.6841 32.7238 31.2625 32.764C30.841 32.8041 30.42 32.6823 30.085 32.4233L29.9283 32.285L28.75 31.1067C28.4375 30.7941 28.262 30.3703 28.262 29.9283C28.262 29.4864 28.4375 29.0625 28.75 28.75ZM12.25 28.75C12.5624 29.0625 12.738 29.4864 12.738 29.9283C12.738 30.3703 12.5624 30.7941 12.25 31.1067L11.0717 32.285C10.7573 32.5886 10.3363 32.7566 9.89932 32.7528C9.46233 32.749 9.0443 32.5737 8.73529 32.2647C8.42628 31.9557 8.251 31.5377 8.2472 31.1007C8.2434 30.6637 8.41139 30.2427 8.71499 29.9283L9.89332 28.75C10.2059 28.4375 10.6297 28.262 11.0717 28.262C11.5136 28.262 11.9374 28.4375 12.25 28.75ZM20.5 3.83333C20.9082 3.83338 21.3022 3.98326 21.6073 4.25452C21.9123 4.52579 22.1072 4.89958 22.155 5.30499L22.1667 5.49999V7.33333L35.7917 20.96C36.8067 21.9733 36.1633 23.6767 34.7917 23.8233L34.6017 23.8333H28.6667C28.2873 25.6842 27.2905 27.3513 25.8396 28.5615C24.3888 29.7716 22.5698 30.4531 20.6809 30.4942C18.7921 30.5352 16.9452 29.9335 15.4431 28.7875C13.941 27.6415 12.8727 26.0193 12.4133 24.1867L12.3333 23.8333H6.39832C4.96332 23.8333 4.21499 22.1733 5.07999 21.1017L5.20832 20.96L18.8333 7.33333V5.49999C18.8333 5.05797 19.0089 4.63404 19.3215 4.32148C19.634 4.00892 20.058 3.83333 20.5 3.83333ZM25.2167 23.8333H15.7833C16.1193 24.7838 16.7347 25.6106 17.5488 26.2052C18.3628 26.7998 19.3376 27.1346 20.3452 27.1656C21.3529 27.1966 22.3464 26.9224 23.1954 26.3789C24.0445 25.8354 24.7095 25.048 25.1033 24.12L25.2167 23.8333ZM30.6183 20.5L20.6167 10.4967L20.5 10.5L20.3867 10.4967L10.3833 20.5H30.6183Z" fill="#4C7380"/>
</g>
<defs>
<clipPath id="clip0_1_1868">
<rect width="40" height="40" fill="white" transform="translate(0.5 0.5)"/>
</clipPath>
</defs>
</svg>
