<svg width="24" height="24" viewBox="0 0 24 24" fill="none" xmlns="http://www.w3.org/2000/svg">
<path d="M16.5 5.7C16.7175 5.70001 16.9276 5.77877 17.0915 5.92172C17.2554 6.06467 17.362 6.26213 17.3916 6.4776L17.4 6.6V17.4C17.3999 17.628 17.3133 17.8475 17.1576 18.0141C17.0019 18.1808 16.7888 18.2821 16.5613 18.2976C16.3338 18.3132 16.1089 18.2418 15.932 18.0979C15.7551 17.954 15.6395 17.7483 15.6084 17.5224L15.6 17.4V6.6C15.6 6.3613 15.6948 6.13238 15.8636 5.9636C16.0324 5.79482 16.2613 5.7 16.5 5.7ZM6.56399 5.964C6.71637 5.81158 6.9184 5.7189 7.13333 5.70283C7.34826 5.68675 7.56183 5.74834 7.73519 5.8764L7.83599 5.964L13.236 11.364C13.3884 11.5164 13.4811 11.7184 13.4972 11.9333C13.5132 12.1483 13.4516 12.3618 13.3236 12.5352L13.236 12.636L7.83599 18.036C7.67519 18.1955 7.46014 18.2886 7.23376 18.2966C7.00737 18.3045 6.78631 18.2268 6.61469 18.079C6.44306 17.9312 6.3335 17.724 6.30786 17.499C6.28223 17.2739 6.34241 17.0474 6.47639 16.8648L6.56399 16.764L11.328 12L6.56399 7.236C6.39545 7.06725 6.30078 6.8385 6.30078 6.6C6.30078 6.3615 6.39545 6.13275 6.56399 5.964Z" fill="white"/>
</svg>
