<svg width="128" height="128" viewBox="0 0 128 128" fill="none" xmlns="http://www.w3.org/2000/svg">
<path d="M109.65 53.48H109.64C109.64 53.41 109.65 53.34 109.65 53.27C109.65 43.72 101.91 35.97 92.35 35.97C91.12 35.97 89.92 36.1 88.77 36.35C85.34 28.01 77.15 22.13 67.57 22.13C60.38 22.13 53.97 25.45 49.77 30.63C46.9817 29.212 43.8981 28.472 40.77 28.47C30.42 28.47 21.92 36.35 20.93 46.44C9.68 47.04 0.649998 56.26 0.499998 67.71C0.339998 79.63 9.89 89.43 21.81 89.58C22.74 89.59 23.64 89.53 24.54 89.42C29.15 99.14 39.04 105.86 50.51 105.86C57.43 105.86 63.77 103.41 68.73 99.34C72.52 102.15 77.2 103.83 82.28 103.83C92.7 103.83 101.47 96.84 104.2 87.29C105.92 87.86 107.75 88.18 109.66 88.18C119.24 88.18 127.01 80.41 127.01 70.83C127 61.25 119.24 53.48 109.65 53.48Z" fill="#E3EBEE"/>
<path d="M119.85 56.79C123.78 60.76 121 69.86 118.3 72.83C112.98 78.66 103.22 77.3 99.3 76.46C98.24 76.23 98.07 76.31 97.72 76.52C97.41 76.71 97.27 77.01 96.93 77.72C95.67 80.44 92.41 85.71 85.53 87.83C78.36 90.04 71.6 86.67 68.44 84.66C67.24 83.9 67.19 83.88 66.65 83.89C66.1 83.9 65.56 84.3 64.91 84.81C62.05 87.06 55.52 91.03 45.45 90.45C35.58 89.88 29.93 83.8 27.99 80.67C27.62 80.07 27.22 79.57 26.76 79.52C26.23 79.47 25.64 80.01 25.2 80.45C21 84.54 7.77999 85.77 3.39999 78.8C7.85999 85.95 14.75 89.49 21.82 89.58C22.75 89.59 23.65 89.53 24.55 89.42C29.16 99.14 39.05 105.86 50.52 105.86C57.44 105.86 63.78 103.41 68.74 99.34C72.53 102.15 77.21 103.83 82.29 103.83C92.71 103.83 101.48 96.84 104.21 87.29C105.93 87.86 107.76 88.18 109.67 88.18C119.25 88.18 127.02 80.41 127.02 70.83C127 65.73 124.44 59.97 119.85 56.79Z" fill="#B9CDD2"/>
</svg>
