<svg width="85" height="109" viewBox="0 0 85 109" fill="none" xmlns="http://www.w3.org/2000/svg">
<path d="M-19.55 43.3C-18.83 42.58 -20.82 34.01 -11.95 27.39C-3.08002 20.77 2.96999 24.72 3.81998 24.43C4.65998 24.15 8.60999 6.83001 25.22 2.33001C41.83 -2.16999 59.15 6.27001 63.23 20.35C66.96 33.22 64.07 41.89 64.5 42.45C64.92 43.01 72.95 42.73 77.59 50.19C82.23 57.65 80.55 62.3 80.55 62.3L50.99 71.45H3.68998C3.68998 71.45 -37.98 60.47 -38.4 58.5C-38.82 56.53 -37.87 50.13 -31.08 46.25C-25.18 42.88 -20.82 44.57 -19.55 43.3Z" fill="#E4EAEE"/>
<path d="M-7.84001 73.84C-7.84001 73.84 -23.62 77.14 -34.29 68.88C-40.71 63.9 -38.37 55.83 -38.37 55.83C-38.37 55.83 -33.77 60.48 -24.48 61.74C-15.19 63.01 -4.77001 62.58 -4.77001 62.58C-4.77001 62.58 -2.17001 67.02 7.61999 69.06C19.89 71.61 26.36 65.33 26.36 65.33C26.36 65.33 29.72 69.35 41.55 69.63C53.38 69.91 60.01 61.65 61.12 61.46C61.68 61.37 64.94 64.33 71.4 63.29C77.55 62.3 80.79 59.63 80.79 59.63C80.79 59.63 81.68 66.25 75.49 70.33C70.66 73.51 62.26 73.85 62.26 73.85C62.26 73.85 60.98 78.76 55.21 82.33C49.85 85.66 40.61 86.77 33.77 84.73C25.18 82.17 23.05 78.26 23.05 78.26C23.05 78.26 16.65 82.01 6.64999 80.74C-2.80001 79.56 -7.84001 73.84 -7.84001 73.84Z" fill="#BACDD2"/>
</svg>
