<svg width="128" height="128" viewBox="0 0 128 128" fill="none" xmlns="http://www.w3.org/2000/svg">
<path d="M23.45 62.3C24.17 61.58 22.18 53.01 31.05 46.39C39.92 39.77 45.97 43.72 46.82 43.43C47.66 43.15 51.61 25.83 68.22 21.33C84.83 16.83 102.15 25.27 106.23 39.35C109.96 52.22 107.07 60.89 107.5 61.45C107.92 62.01 115.95 61.73 120.59 69.19C125.23 76.65 123.55 81.3 123.55 81.3L93.99 90.45H46.69C46.69 90.45 5.02 79.47 4.6 77.5C4.18 75.53 5.13 69.13 11.92 65.25C17.82 61.88 22.18 63.57 23.45 62.3Z" fill="#E4EAEE"/>
<path d="M35.16 92.84C35.16 92.84 19.38 96.14 8.71 87.88C2.29 82.9 4.63 74.83 4.63 74.83C4.63 74.83 9.23001 79.48 18.52 80.74C27.81 82.01 38.23 81.58 38.23 81.58C38.23 81.58 40.83 86.02 50.62 88.06C62.89 90.61 69.36 84.33 69.36 84.33C69.36 84.33 72.72 88.35 84.55 88.63C96.38 88.91 103.01 80.65 104.12 80.46C104.68 80.37 107.94 83.33 114.4 82.29C120.55 81.3 123.79 78.63 123.79 78.63C123.79 78.63 124.68 85.25 118.49 89.33C113.66 92.51 105.26 92.85 105.26 92.85C105.26 92.85 103.98 97.76 98.21 101.33C92.85 104.66 83.61 105.77 76.77 103.73C68.18 101.17 66.05 97.26 66.05 97.26C66.05 97.26 59.65 101.01 49.65 99.74C40.2 98.56 35.16 92.84 35.16 92.84Z" fill="#BACDD2"/>
</svg>
