<svg width="101" height="72" viewBox="0 0 101 72" fill="none" xmlns="http://www.w3.org/2000/svg">
<path d="M109.65 -2.51999H109.64C109.64 -2.58999 109.65 -2.65999 109.65 -2.72999C109.65 -12.28 101.91 -20.03 92.35 -20.03C91.12 -20.03 89.92 -19.9 88.77 -19.65C85.34 -27.99 77.15 -33.87 67.57 -33.87C60.38 -33.87 53.97 -30.55 49.77 -25.37C46.9817 -26.788 43.8981 -27.528 40.77 -27.53C30.42 -27.53 21.92 -19.65 20.93 -9.56C9.68 -8.96 0.649998 0.260006 0.499998 11.71C0.339998 23.63 9.89 33.43 21.81 33.58C22.74 33.59 23.64 33.53 24.54 33.42C29.15 43.14 39.04 49.86 50.51 49.86C57.43 49.86 63.77 47.41 68.73 43.34C72.52 46.15 77.2 47.83 82.28 47.83C92.7 47.83 101.47 40.84 104.2 31.29C105.92 31.86 107.75 32.18 109.66 32.18C119.24 32.18 127.01 24.41 127.01 14.83C127 5.25001 119.24 -2.51999 109.65 -2.51999Z" fill="#E3EBEE"/>
<path d="M119.85 0.789978C123.78 4.75998 121 13.86 118.3 16.83C112.98 22.66 103.22 21.3 99.3 20.46C98.24 20.23 98.07 20.31 97.72 20.52C97.41 20.71 97.27 21.01 96.93 21.72C95.67 24.44 92.41 29.71 85.53 31.83C78.36 34.04 71.6 30.67 68.44 28.66C67.24 27.9 67.19 27.88 66.65 27.89C66.1 27.9 65.56 28.3 64.91 28.81C62.05 31.06 55.52 35.03 45.45 34.45C35.58 33.88 29.93 27.8 27.99 24.67C27.62 24.07 27.22 23.57 26.76 23.52C26.23 23.47 25.64 24.01 25.2 24.45C21 28.54 7.78 29.77 3.4 22.8C7.86 29.95 14.75 33.49 21.82 33.58C22.75 33.59 23.65 33.53 24.55 33.42C29.16 43.14 39.05 49.86 50.52 49.86C57.44 49.86 63.78 47.41 68.74 43.34C72.53 46.15 77.21 47.83 82.29 47.83C92.71 47.83 101.48 40.84 104.21 31.29C105.93 31.86 107.76 32.18 109.67 32.18C119.25 32.18 127.02 24.41 127.02 14.83C127 9.72998 124.44 3.96998 119.85 0.789978Z" fill="#B9CDD2"/>
</svg>
