<svg width="41" height="41" viewBox="0 0 41 41" fill="none" xmlns="http://www.w3.org/2000/svg">
<path d="M20.5 5.5H10.5V20.5C9.1008 21.5494 8.06724 23.0125 7.54574 24.6819C7.02424 26.3514 7.04124 28.1426 7.59433 29.8019C8.14742 31.4612 9.20856 32.9043 10.6274 33.927C12.0463 34.9497 13.751 35.5 15.5 35.5C17.249 35.5 18.9537 34.9497 20.3726 33.927C21.7915 32.9043 22.8526 31.4612 23.4057 29.8019C23.9588 28.1426 23.9758 26.3514 23.4543 24.6819C22.9328 23.0125 21.8992 21.5494 20.5 20.5V5.5ZM20.5 5.5H23.8334M20.5 10.5H23.8334M20.5 15.5H23.8334M32.1667 12.1667C33.0507 12.1667 33.8986 11.8155 34.5237 11.1904C35.1488 10.5652 35.5 9.71739 35.5 8.83333C35.5 7.94928 35.1488 7.10143 34.5237 6.47631C33.8986 5.85119 33.0507 5.5 32.1667 5.5C31.2826 5.5 30.4348 5.85119 29.8097 6.47631C29.1845 7.10143 28.8334 7.94928 28.8334 8.83333C28.8334 9.71739 29.1845 10.5652 29.8097 11.1904C30.4348 11.8155 31.2826 12.1667 32.1667 12.1667Z" stroke="#4C7380" stroke-width="1.5" stroke-linecap="round" stroke-linejoin="round"/>
<path d="M15.5 23.8333C14.616 23.8333 13.7681 24.1845 13.143 24.8096C12.5179 25.4348 12.1667 26.2826 12.1667 27.1667C12.1667 28.0507 12.5179 28.8986 13.143 29.5237C13.7681 30.1488 14.616 30.5 15.5 30.5C16.3841 30.5 17.2319 30.1488 17.857 29.5237C18.4822 28.8986 18.8334 28.0507 18.8334 27.1667C18.8334 26.2826 18.4822 25.4348 17.857 24.8096C17.2319 24.1845 16.3841 23.8333 15.5 23.8333ZM15.5 23.8333V10.5" stroke="#4C7380" stroke-width="1.5" stroke-linecap="round" stroke-linejoin="round"/>
</svg>
