<svg width="42" height="50" viewBox="0 0 42 50" fill="none" xmlns="http://www.w3.org/2000/svg">
<g clip-path="url(#clip0_1_2273)">
<path d="M22.2222 2.77778C22.2222 2.77778 22.2222 0 25 0C27.7778 0 27.7778 2.77778 27.7778 2.77778V5.55556C27.7778 5.55556 27.7778 8.33333 25 8.33333C22.2222 8.33333 22.2222 5.55556 22.2222 5.55556V2.77778ZM47.2222 22.2222C47.2222 22.2222 50 22.2222 50 25C50 27.7778 47.2222 27.7778 47.2222 27.7778H44.4444C44.4444 27.7778 41.6667 27.7778 41.6667 25C41.6667 22.2222 44.4444 22.2222 44.4444 22.2222H47.2222ZM5.55556 22.2222C5.55556 22.2222 8.33333 22.2222 8.33333 25C8.33333 27.7778 5.55556 27.7778 5.55556 27.7778H2.77778C2.77778 27.7778 0 27.7778 0 25C0 22.2222 2.77778 22.2222 2.77778 22.2222H5.55556ZM12.6681 10.1292C12.6681 10.1292 14.6319 12.0931 12.6681 14.0569C10.7042 16.0208 8.74028 14.0569 8.74028 14.0569L6.775 12.0944C6.775 12.0944 4.81111 10.1306 6.775 8.16528C8.74028 6.20139 10.7042 8.16528 10.7042 8.16528L12.6681 10.1292ZM41.8347 39.2958C41.8347 39.2958 43.7986 41.2597 41.8347 43.2236C39.8708 45.1875 37.9069 43.2236 37.9069 43.2236L35.9431 41.2597C35.9431 41.2597 33.9792 39.2958 35.9431 37.3319C37.9069 35.3681 39.8708 37.3319 39.8708 37.3319L41.8347 39.2958ZM41.2611 14.0569C41.2611 14.0569 39.2972 16.0208 37.3333 14.0569C35.3694 12.0931 37.3333 10.1292 37.3333 10.1292L39.2972 8.16528C39.2972 8.16528 41.2611 6.20139 43.225 8.16528C45.1889 10.1292 43.225 12.0931 43.225 12.0931L41.2611 14.0569ZM12.0944 43.2236C12.0944 43.2236 10.1306 45.1875 8.16667 43.2236C6.20278 41.2597 8.16667 39.2958 8.16667 39.2958L10.1306 37.3319C10.1306 37.3319 12.0944 35.3681 14.0583 37.3319C16.0222 39.2958 14.0583 41.2597 14.0583 41.2597L12.0944 43.2236ZM22.2222 44.4444C22.2222 44.4444 22.2222 41.6667 25 41.6667C27.7778 41.6667 27.7778 44.4444 27.7778 44.4444V47.2222C27.7778 47.2222 27.7778 50 25 50C22.2222 50 22.2222 47.2222 22.2222 47.2222V44.4444Z" fill="#FFAC33"/>
<path d="M25 38.8889C32.6706 38.8889 38.8889 32.6706 38.8889 25C38.8889 17.3294 32.6706 11.1111 25 11.1111C17.3294 11.1111 11.1111 17.3294 11.1111 25C11.1111 32.6706 17.3294 38.8889 25 38.8889Z" fill="#FFAC33"/>
</g>
<defs>
<clipPath id="clip0_1_2273">
<rect width="50" height="50" fill="white"/>
</clipPath>
</defs>
</svg>
