<svg width="60" height="60" viewBox="0 0 60 60" fill="none" xmlns="http://www.w3.org/2000/svg">
<g clip-path="url(#clip0_1_2234)">
<path d="M23.3333 3.33333C23.3333 3.33333 23.3333 0 26.6667 0C30 0 30 3.33333 30 3.33333V6.66667C30 6.66667 30 10 26.6667 10C23.3333 10 23.3333 6.66667 23.3333 6.66667V3.33333ZM50 23.3333C50 23.3333 53.3333 23.3333 53.3333 26.6667C53.3333 30 50 30 50 30H46.6667C46.6667 30 43.3333 30 43.3333 26.6667C43.3333 23.3333 46.6667 23.3333 46.6667 23.3333H50ZM6.66667 23.3333C6.66667 23.3333 10 23.3333 10 26.6667C10 30 6.66667 30 6.66667 30H3.33333C3.33333 30 0 30 0 26.6667C0 23.3333 3.33333 23.3333 3.33333 23.3333H6.66667ZM13.12 10.0717C13.12 10.0717 15.4767 12.4283 13.12 14.785C10.7633 17.1417 8.40667 14.785 8.40667 14.785L6.04833 12.43C6.04833 12.43 3.69167 10.0733 6.04833 7.715C8.40667 5.35833 10.7633 7.715 10.7633 7.715L13.12 10.0717ZM44.9283 14.785C44.9283 14.785 42.5717 17.1417 40.215 14.785C37.8583 12.4283 40.215 10.0717 40.215 10.0717L42.5717 7.715C42.5717 7.715 44.9283 5.35833 47.285 7.715C49.6417 10.0717 47.285 12.4283 47.285 12.4283L44.9283 14.785Z" fill="#FFAC33"/>
<path d="M26.6667 41.6667C34.9509 41.6667 41.6667 34.951 41.6667 26.6667C41.6667 18.3824 34.9509 11.6667 26.6667 11.6667C18.3824 11.6667 11.6667 18.3824 11.6667 26.6667C11.6667 34.951 18.3824 41.6667 26.6667 41.6667Z" fill="#FFAC33"/>
<g filter="url(#filter0_dd_1_2234)">
<path d="M46.6667 30.3333C45.2917 30.3333 43.9667 30.5416 42.7183 30.9283C41.9783 28.8078 40.5974 26.9698 38.7666 25.6687C36.9359 24.3677 34.7459 23.6681 32.5 23.6666C27.4267 23.6666 23.18 27.16 22.0017 31.8683C20.7098 30.8773 19.1282 30.338 17.5 30.3333C15.5109 30.3333 13.6032 31.1235 12.1967 32.53C10.7902 33.9365 10 35.8442 10 37.8333C10 38.84 10.205 39.7966 10.565 40.6733C9.84007 40.4589 9.08923 40.3445 8.33333 40.3333C3.73 40.3333 0 44.0633 0 48.6666C0 53.27 3.73 57 8.33333 57H46.6667C50.2029 57 53.5943 55.5952 56.0948 53.0947C58.5952 50.5942 60 47.2028 60 43.6666C60 40.1304 58.5952 36.739 56.0948 34.2385C53.5943 31.738 50.2029 30.3333 46.6667 30.3333Z" fill="white"/>
</g>
</g>
<defs>
<filter id="filter0_dd_1_2234" x="-2" y="22.6666" width="64" height="37.3333" filterUnits="userSpaceOnUse" color-interpolation-filters="sRGB">
<feFlood flood-opacity="0" result="BackgroundImageFix"/>
<feColorMatrix in="SourceAlpha" type="matrix" values="0 0 0 0 0 0 0 0 0 0 0 0 0 0 0 0 0 0 127 0" result="hardAlpha"/>
<feOffset dy="1"/>
<feGaussianBlur stdDeviation="1"/>
<feComposite in2="hardAlpha" operator="out"/>
<feColorMatrix type="matrix" values="0 0 0 0 0 0 0 0 0 0 0 0 0 0 0 0 0 0 0.3 0"/>
<feBlend mode="normal" in2="BackgroundImageFix" result="effect1_dropShadow_1_2234"/>
<feColorMatrix in="SourceAlpha" type="matrix" values="0 0 0 0 0 0 0 0 0 0 0 0 0 0 0 0 0 0 127 0" result="hardAlpha"/>
<feOffset dy="1"/>
<feGaussianBlur stdDeviation="0.5"/>
<feComposite in2="hardAlpha" operator="out"/>
<feColorMatrix type="matrix" values="0 0 0 0 0 0 0 0 0 0 0 0 0 0 0 0 0 0 0.15 0"/>
<feBlend mode="normal" in2="effect1_dropShadow_1_2234" result="effect2_dropShadow_1_2234"/>
<feBlend mode="normal" in="SourceGraphic" in2="effect2_dropShadow_1_2234" result="shape"/>
</filter>
<clipPath id="clip0_1_2234">
<rect width="60" height="60" fill="white"/>
</clipPath>
</defs>
</svg>
