<svg width="14" height="14" viewBox="0 0 14 14" fill="none" xmlns="http://www.w3.org/2000/svg">
<path d="M13.3437 3.0625V6.5625C13.3437 6.73655 13.2746 6.90347 13.1515 7.02654C13.0284 7.14961 12.8615 7.21875 12.6875 7.21875C12.5134 7.21875 12.3465 7.14961 12.2234 7.02654C12.1004 6.90347 12.0312 6.73655 12.0312 6.5625V4.64844L7.90177 8.77844C7.8408 8.83962 7.76836 8.88816 7.68859 8.92128C7.60882 8.95441 7.5233 8.97146 7.43693 8.97146C7.35056 8.97146 7.26504 8.95441 7.18527 8.92128C7.1055 8.88816 7.03305 8.83962 6.97208 8.77844L5.24998 7.05469L1.77677 10.5268C1.65349 10.6501 1.48628 10.7193 1.31193 10.7193C1.13758 10.7193 0.97037 10.6501 0.847086 10.5268C0.723801 10.4035 0.654541 10.2363 0.654541 10.062C0.654541 9.8876 0.723801 9.72039 0.847086 9.59711L4.78458 5.65961C4.84555 5.59843 4.918 5.54989 4.99777 5.51676C5.07754 5.48364 5.16306 5.46659 5.24943 5.46659C5.3358 5.46659 5.42132 5.48364 5.50109 5.51676C5.58086 5.54989 5.6533 5.59843 5.71427 5.65961L7.43748 7.38281L11.1015 3.71875H9.18748C9.01343 3.71875 8.84651 3.64961 8.72344 3.52654C8.60037 3.40347 8.53123 3.23655 8.53123 3.0625C8.53123 2.88845 8.60037 2.72153 8.72344 2.59846C8.84651 2.47539 9.01343 2.40625 9.18748 2.40625H12.6875C12.8615 2.40625 13.0284 2.47539 13.1515 2.59846C13.2746 2.72153 13.3437 2.88845 13.3437 3.0625Z" fill="#659A6E"/>
</svg>
