<svg width="41" height="41" viewBox="0 0 41 41" fill="none" xmlns="http://www.w3.org/2000/svg">
<path fill-rule="evenodd" clip-rule="evenodd" d="M36.056 16.944C27.464 8.352 13.536 8.352 4.94399 16.944C4.56678 17.3083 4.06158 17.5099 3.53719 17.5054C3.01279 17.5008 2.51117 17.2905 2.14035 16.9196C1.76954 16.5488 1.5592 16.0472 1.55464 15.5228C1.55008 14.9984 1.75167 14.4932 2.11599 14.116C12.268 3.962 28.732 3.962 38.884 14.116C39.2483 14.4932 39.4499 14.9984 39.4453 15.5228C39.4408 16.0472 39.2304 16.5488 38.8596 16.9196C38.4888 17.2905 37.9872 17.5008 37.4628 17.5054C36.9384 17.5099 36.4332 17.3083 36.056 16.944ZM30.4 22.6C29.0999 21.2998 27.5565 20.2685 25.8579 19.5648C24.1592 18.8612 22.3386 18.499 20.5 18.499C18.6614 18.499 16.8407 18.8612 15.1421 19.5648C13.4434 20.2685 11.9 21.2998 10.6 22.6C10.2228 22.9643 9.71758 23.1659 9.19319 23.1614C8.66879 23.1568 8.16717 22.9465 7.79635 22.5756C7.42554 22.2048 7.2152 21.7032 7.21064 21.1788C7.20608 20.6544 7.40767 20.1492 7.77199 19.772C9.44345 18.1005 11.4278 16.7746 13.6116 15.87C15.7955 14.9654 18.1362 14.4998 20.5 14.4998C22.8638 14.4998 25.2045 14.9654 27.3883 15.87C29.5722 16.7746 31.5565 18.1005 33.228 19.772C33.5923 20.1492 33.7939 20.6544 33.7893 21.1788C33.7848 21.7032 33.5744 22.2048 33.2036 22.5756C32.8328 22.9465 32.3312 23.1568 31.8068 23.1614C31.2824 23.1659 30.7772 22.9643 30.4 22.6ZM24.74 28.26C23.6148 27.1352 22.089 26.5033 20.498 26.5033C18.907 26.5033 17.3812 27.1352 16.256 28.26C15.8807 28.6353 15.3717 28.8461 14.841 28.8461C14.3103 28.8461 13.8013 28.6353 13.426 28.26C13.0507 27.8847 12.8399 27.3757 12.8399 26.845C12.8399 26.3143 13.0507 25.8053 13.426 25.43C14.3546 24.5011 15.4571 23.7643 16.6705 23.2616C17.884 22.7589 19.1845 22.5001 20.498 22.5001C21.8114 22.5001 23.112 22.7589 24.3254 23.2616C25.5389 23.7643 26.6414 24.5011 27.57 25.43C27.9453 25.8053 28.1561 26.3143 28.1561 26.845C28.1561 27.3757 27.9453 27.8847 27.57 28.26C27.1947 28.6353 26.6857 28.8461 26.155 28.8461C25.6243 28.8461 25.1153 28.6353 24.74 28.26ZM18.5 32.5C18.5 31.9696 18.7107 31.4609 19.0858 31.0858C19.4608 30.7107 19.9696 30.5 20.5 30.5H20.52C21.0504 30.5 21.5591 30.7107 21.9342 31.0858C22.3093 31.4609 22.52 31.9696 22.52 32.5C22.52 33.0304 22.3093 33.5391 21.9342 33.9142C21.5591 34.2893 21.0504 34.5 20.52 34.5H20.5C19.9696 34.5 19.4608 34.2893 19.0858 33.9142C18.7107 33.5391 18.5 33.0304 18.5 32.5Z" fill="#4C7380"/>
</svg>
