<svg width="25" height="24" viewBox="0 0 25 24" fill="none" xmlns="http://www.w3.org/2000/svg">
<path d="M3.66666 9C3.86444 9 4.05778 8.94135 4.22223 8.83147C4.38668 8.72159 4.51485 8.56541 4.59054 8.38268C4.66622 8.19996 4.68603 7.99889 4.64744 7.80491C4.60886 7.61093 4.51362 7.43275 4.37376 7.29289C4.23391 7.15304 4.05573 7.0578 3.86175 7.01921C3.66777 6.98063 3.4667 7.00043 3.28397 7.07612C3.10125 7.15181 2.94507 7.27998 2.83519 7.44443C2.72531 7.60888 2.66666 7.80222 2.66666 8C2.66666 8.26522 2.77201 8.51957 2.95955 8.70711C3.14709 8.89464 3.40144 9 3.66666 9ZM7.66666 9H14.6667C15.4623 9 16.2254 8.68393 16.788 8.12132C17.3506 7.55871 17.6667 6.79565 17.6667 6C17.6667 5.20435 17.3506 4.44129 16.788 3.87868C16.2254 3.31607 15.4623 3 14.6667 3C14.1406 3.00218 13.624 3.13994 13.1667 3.4C13.0521 3.46533 12.9515 3.55268 12.8709 3.65703C12.7902 3.76138 12.7309 3.88066 12.6965 4.008C12.6621 4.13534 12.6533 4.26822 12.6705 4.399C12.6877 4.52978 12.7305 4.65587 12.7967 4.77C12.8628 4.88375 12.9508 4.98333 13.0555 5.06302C13.1602 5.14271 13.2797 5.20094 13.4069 5.23439C13.5342 5.26783 13.6668 5.27583 13.7972 5.25791C13.9276 5.24 14.0531 5.19653 14.1667 5.13C14.3205 5.04722 14.492 5.00264 14.6667 5C14.9319 5 15.1862 5.10536 15.3738 5.29289C15.5613 5.48043 15.6667 5.73478 15.6667 6C15.6667 6.26522 15.5613 6.51957 15.3738 6.70711C15.1862 6.89464 14.9319 7 14.6667 7H7.66666C7.40144 7 7.14709 7.10536 6.95955 7.29289C6.77201 7.48043 6.66666 7.73478 6.66666 8C6.66666 8.26522 6.77201 8.51957 6.95955 8.70711C7.14709 8.89464 7.40144 9 7.66666 9ZM3.66666 13H10.6667C10.9319 13 11.1862 12.8946 11.3738 12.7071C11.5613 12.5196 11.6667 12.2652 11.6667 12C11.6667 11.7348 11.5613 11.4804 11.3738 11.2929C11.1862 11.1054 10.9319 11 10.6667 11H3.66666C3.40144 11 3.14709 11.1054 2.95955 11.2929C2.77201 11.4804 2.66666 11.7348 2.66666 12C2.66666 12.2652 2.77201 12.5196 2.95955 12.7071C3.14709 12.8946 3.40144 13 3.66666 13ZM20.6667 9C20.8644 9 21.0578 8.94135 21.2222 8.83147C21.3867 8.72159 21.5148 8.56541 21.5905 8.38268C21.6662 8.19996 21.686 7.99889 21.6474 7.80491C21.6089 7.61093 21.5136 7.43275 21.3738 7.29289C21.2339 7.15304 21.0557 7.0578 20.8617 7.01921C20.6678 6.98063 20.4667 7.00043 20.284 7.07612C20.1012 7.15181 19.9451 7.27998 19.8352 7.44443C19.7253 7.60888 19.6667 7.80222 19.6667 8C19.6667 8.26522 19.772 8.51957 19.9595 8.70711C20.1471 8.89464 20.4014 9 20.6667 9ZM18.6667 11H14.6667C14.4014 11 14.1471 11.1054 13.9595 11.2929C13.772 11.4804 13.6667 11.7348 13.6667 12C13.6667 12.2652 13.772 12.5196 13.9595 12.7071C14.1471 12.8946 14.4014 13 14.6667 13H18.6667C18.9319 13 19.1862 13.1054 19.3738 13.2929C19.5613 13.4804 19.6667 13.7348 19.6667 14C19.6667 14.2652 19.5613 14.5196 19.3738 14.7071C19.1862 14.8946 18.9319 15 18.6667 15C18.4014 15 18.1471 15.1054 17.9595 15.2929C17.772 15.4804 17.6667 15.7348 17.6667 16C17.6667 16.2652 17.772 16.5196 17.9595 16.7071C18.1471 16.8946 18.4014 17 18.6667 17C19.4623 17 20.2254 16.6839 20.788 16.1213C21.3506 15.5587 21.6667 14.7956 21.6667 14C21.6667 13.2044 21.3506 12.4413 20.788 11.8787C20.2254 11.3161 19.4623 11 18.6667 11ZM12.6667 15H8.66666C8.40144 15 8.14709 15.1054 7.95955 15.2929C7.77201 15.4804 7.66666 15.7348 7.66666 16C7.66666 16.2652 7.77201 16.5196 7.95955 16.7071C8.14709 16.8946 8.40144 17 8.66666 17H12.6667C12.9319 17 13.1862 17.1054 13.3738 17.2929C13.5613 17.4804 13.6667 17.7348 13.6667 18C13.6667 18.2652 13.5613 18.5196 13.3738 18.7071C13.1862 18.8946 12.9319 19 12.6667 19C12.492 18.9974 12.3205 18.9528 12.1667 18.87C12.0528 18.7976 11.9256 18.7491 11.7925 18.7272C11.6594 18.7053 11.5233 18.7105 11.3923 18.7426C11.2613 18.7747 11.1381 18.833 11.0302 18.9139C10.9223 18.9948 10.8319 19.0967 10.7644 19.2135C10.6969 19.3302 10.6537 19.4594 10.6375 19.5933C10.6212 19.7272 10.6322 19.863 10.6698 19.9925C10.7074 20.1221 10.7707 20.2427 10.8561 20.347C10.9415 20.4514 11.0472 20.5375 11.1667 20.6C11.624 20.8601 12.1406 20.9978 12.6667 21C13.4623 21 14.2254 20.6839 14.788 20.1213C15.3506 19.5587 15.6667 18.7956 15.6667 18C15.6667 17.2044 15.3506 16.4413 14.788 15.8787C14.2254 15.3161 13.4623 15 12.6667 15ZM4.66666 15H3.66666C3.40144 15 3.14709 15.1054 2.95955 15.2929C2.77201 15.4804 2.66666 15.7348 2.66666 16C2.66666 16.2652 2.77201 16.5196 2.95955 16.7071C3.14709 16.8946 3.40144 17 3.66666 17H4.66666C4.93187 17 5.18623 16.8946 5.37376 16.7071C5.5613 16.5196 5.66666 16.2652 5.66666 16C5.66666 15.7348 5.5613 15.4804 5.37376 15.2929C5.18623 15.1054 4.93187 15 4.66666 15Z" fill="#6CABCE"/>
</svg>
